<?xml version="1.0" encoding="utf-8"?>
<!-- Generator: Adobe Illustrator 25.0.0, SVG Export Plug-In . SVG Version: 6.00 Build 0)  -->
<svg version="1.1" id="Слой_1" xmlns="http://www.w3.org/2000/svg" xmlns:xlink="http://www.w3.org/1999/xlink" x="0px" y="0px"
	 viewBox="0 0 626.96 600" style="enable-background:new 0 0 626.96 600;" xml:space="preserve">
<style type="text/css">
	.st0{fill:none;stroke:#F28B1E;stroke-width:42;stroke-miterlimit:10;}
</style>
<path class="st0" d="M158.98,242.62c6.54,106.11,13.07,212.22,19.61,318.33c80.18-1.26,160.37-2.53,240.55-3.79
	c4.35-102.11,8.7-204.23,13.05-306.34"/>
<path class="st0" d="M469.02,293.51c29.68,9.42,59.36,18.84,89.05,28.26c-4.17-19.91-12.31-45.14-28.85-70.17
	c-52.63-79.62-145.51-89.38-162.39-90.86c-9.29,33.24-36.05,57.47-67.34,61.25c-36.61,4.42-72.9-19.94-85.43-59.03
	c-17.51,2.49-107.73,17.16-154.12,96.71c-12.51,21.46-19.01,42.8-22.42,60.86c29.7-6.62,59.41-13.23,89.11-19.85"/>
</svg>
